<?xml version="1.0" standalone="no"?>
<!DOCTYPE svg PUBLIC "-//W3C//DTD SVG 20010904//EN"
 "http://www.w3.org/TR/2001/REC-SVG-20010904/DTD/svg10.dtd">
<svg version="1.0" xmlns="http://www.w3.org/2000/svg"
 width="400.000000pt" height="400.000000pt" viewBox="0 0 400.000000 400.000000"
 preserveAspectRatio="xMidYMid meet">
<metadata>
Created by potrace 1.11, written by Peter Selinger 2001-2013
</metadata>
<g transform="translate(0.000000,400.000000) scale(0.100000,-0.100000)"
fill="#000000" stroke="none">
<path d="M1859 3475 c-2 -1 -26 -5 -54 -8 -218 -22 -502 -134 -700 -277 -115
-83 -266 -231 -346 -340 -76 -102 -164 -250 -189 -318 -19 -50 -71 -243 -84
-312 -13 -71 -49 -217 -57 -230 -8 -14 -6 28 6 140 3 25 11 74 19 110 27 124
27 127 17 104 -24 -54 -73 -361 -63 -396 1 -5 -2 -8 -7 -8 -6 0 -8 36 -6 83 2
63 1 75 -6 52 -6 -16 -7 -70 -4 -118 4 -58 2 -100 -6 -121 -12 -34 -12 -36 68
-321 7 -27 15 -76 17 -108 4 -66 21 -94 38 -64 9 18 11 18 34 -4 13 -13 39
-46 56 -73 97 -153 143 -221 196 -287 161 -200 322 -331 525 -428 48 -23 87
-45 87 -50 0 -5 28 -18 63 -31 34 -12 74 -28 89 -36 31 -17 64 -18 73 -4 11
17 -14 39 -58 51 -23 6 -59 23 -82 38 -22 15 -63 37 -92 50 -29 13 -54 30 -57
37 -5 13 9 10 88 -18 32 -12 49 -12 91 -3 43 10 58 10 86 -2 41 -17 90 -10
114 16 21 24 37 89 23 97 -5 4 -1 15 11 28 45 48 4 150 -61 148 -21 -1 -48 9
-73 26 l-40 27 49 5 49 5 -28 33 c-17 20 -36 32 -49 31 -49 -3 -67 4 -156 63
-229 153 -349 316 -445 605 -80 243 -86 440 -19 648 98 302 310 548 587 681
245 117 573 136 837 48 233 -78 477 -260 595 -442 87 -136 170 -336 195 -469
5 -32 12 -69 15 -83 8 -37 7 -237 0 -295 -23 -173 -92 -351 -223 -570 -49 -83
-63 -100 -140 -178 -81 -82 -71 -90 13 -9 198 188 319 393 373 627 54 232 44
469 -29 708 -17 54 -29 103 -27 109 7 21 79 -153 104 -254 29 -113 31 -123 33
-186 0 -24 5 -41 9 -38 9 6 6 75 -8 156 -39 229 -103 369 -280 605 -82 110
-117 147 -195 207 -156 121 -355 213 -553 253 -100 21 -138 24 -267 21 -145
-4 -171 -6 -245 -26 -73 -20 -89 -6 -28 24 41 21 98 27 303 30 159 2 177 1
280 -26 218 -56 295 -88 445 -186 154 -99 254 -193 346 -323 30 -42 62 -79 72
-81 24 -7 124 -176 151 -257 59 -172 76 -289 75 -501 0 -122 -5 -177 -23 -259
-55 -254 -155 -453 -300 -600 -36 -37 -77 -80 -91 -96 l-25 -29 30 22 c45 31
74 60 141 137 136 157 221 308 294 525 47 139 47 137 54 340 3 80 5 152 6 160
0 13 2 13 9 1 15 -24 6 -357 -13 -442 -50 -232 -149 -430 -313 -627 -32 -38
-42 -54 -24 -37 62 56 221 265 221 290 0 3 12 29 26 58 33 67 119 290 132 342
17 66 22 104 28 235 7 137 -4 252 -38 390 -11 47 -20 99 -19 117 3 68 -136
341 -255 498 -287 383 -724 590 -1250 593 -78 1 -143 -1 -145 -3z m-229 -299
c0 -5 -280 -155 -314 -169 -19 -8 -19 -7 -1 12 15 17 181 104 285 149 31 13
30 13 30 8z m-610 -89 c0 -2 -19 -21 -42 -42 l-43 -40 40 43 c36 39 45 47 45
39z m107 -234 c-30 -32 -69 -74 -86 -93 l-33 -35 30 45 c32 48 120 140 135
140 5 0 -16 -26 -46 -57z m2064 -198 c5 -11 -6 -2 -26 19 -19 22 -35 44 -35
50 0 12 45 -39 61 -69z m-2421 -515 c-16 -60 -22 -44 -7 19 6 29 13 46 15 38
2 -9 -2 -34 -8 -57z m-267 -466 c9 -18 19 -51 22 -75 4 -24 8 -55 11 -69 l4
-25 -14 26 c-28 49 -56 181 -54 253 l1 71 7 -75 c3 -41 14 -89 23 -106z m127
-330 c0 -24 -9 -16 -30 29 l-21 42 26 -28 c14 -15 25 -35 25 -43z m38 -55 c35
-64 149 -229 192 -280 75 -88 262 -267 314 -301 6 -4 8 -10 4 -13 -10 -11
-170 117 -260 210 -49 49 -115 128 -147 175 -74 109 -146 240 -131 240 6 0 19
-14 28 -31z m427 -562 c161 -124 179 -141 90 -86 -73 44 -155 109 -215 168
-49 49 -24 32 125 -82z"/>
<path d="M887 3124 c-37 -37 -67 -71 -67 -77 0 -6 1 -8 3 -6 1 3 33 37 72 77
38 39 67 72 64 72 -2 0 -35 -30 -72 -66z"/>
<path d="M795 3026 c-6 -7 -28 -38 -51 -67 -22 -30 -43 -62 -47 -72 -4 -11
-15 -21 -25 -24 -10 -2 -32 -32 -50 -66 -17 -34 -41 -78 -53 -97 l-22 -35 26
30 c23 26 19 13 -28 -114 -30 -79 -57 -160 -59 -180 -3 -20 -3 -27 0 -16 13
44 63 183 84 230 43 99 54 121 82 155 15 19 28 41 28 49 0 18 42 91 93 159 21
30 37 55 35 57 -2 2 -8 -2 -13 -9z"/>
<path d="M2164 2660 c-43 -17 -47 -30 -60 -225 -3 -55 -7 -109 -8 -120 -3 -17
-20 -26 -77 -40 -9 -2 -42 -14 -75 -27 -76 -30 -79 -47 -19 -104 46 -45 47
-45 101 -38 l55 6 -2 -46 -3 -46 -80 -26 c-45 -15 -103 -38 -131 -50 -27 -13
-51 -22 -52 -20 -2 1 13 33 32 71 28 52 33 70 24 81 -6 8 -18 14 -25 14 -18 0
-314 -449 -314 -477 0 -5 -18 -29 -41 -53 -35 -37 -40 -48 -35 -74 8 -37 30
-63 77 -87 32 -16 39 -16 56 -4 22 15 123 147 123 160 0 4 16 46 34 94 31 76
41 122 46 211 1 23 2 23 20 -11 11 -21 34 -43 54 -53 44 -21 53 -20 59 4 5 18
41 38 127 72 21 8 18 2 -17 -34 -23 -24 -71 -81 -107 -127 -37 -47 -78 -93
-93 -102 -35 -24 -54 -70 -43 -106 5 -15 12 -40 15 -55 7 -36 32 -42 118 -28
84 14 310 93 346 121 13 10 27 19 32 19 4 0 25 -24 45 -54 66 -94 121 -116
184 -73 54 36 55 64 5 149 -24 40 -51 81 -61 90 -92 87 -178 113 -246 77 -20
-11 -24 -54 -6 -65 7 -5 -13 -14 -48 -24 -32 -9 -61 -15 -64 -12 -7 5 151 152
182 168 27 14 34 30 40 84 3 22 10 27 63 38 33 7 93 13 134 13 82 0 131 19
131 52 0 25 -79 96 -107 97 -12 0 -48 -7 -80 -15 -58 -14 -77 -18 -165 -30
-56 -8 -67 4 -49 57 20 58 42 77 116 97 126 35 155 61 129 113 -26 51 -93 71
-178 53 l-38 -8 6 44 c4 24 14 61 23 81 15 36 15 38 -8 65 -87 103 -107 117
-145 103z"/>
<path d="M1627 2562 c-25 -27 -21 -49 19 -105 20 -28 41 -65 46 -83 5 -21 17
-35 31 -39 12 -3 38 -10 57 -16 78 -23 126 37 89 112 -32 64 -147 149 -202
149 -13 0 -31 -8 -40 -18z"/>
<path d="M1458 2257 c-6 -12 -12 -45 -12 -73 -1 -44 4 -57 41 -106 23 -31 62
-69 87 -84 42 -27 45 -32 48 -79 2 -42 6 -50 24 -53 18 -3 29 12 68 90 42 85
45 96 36 130 -16 56 -132 146 -232 181 -47 15 -48 15 -60 -6z"/>
<path d="M3313 1930 c-1 -11 1 -22 5 -24 4 -2 8 7 8 20 1 13 -1 24 -5 24 -4 0
-7 -9 -8 -20z"/>
<path d="M3313 1875 c0 -8 4 -12 9 -9 4 3 8 9 8 15 0 5 -4 9 -8 9 -5 0 -9 -7
-9 -15z"/>
</g>
</svg>
